ffmpeg version 3.4.8-0ubuntu0.2 Copyright (c) 2000-2020 the FFmpeg developers
  built with gcc 7 (Ubuntu 7.5.0-3ubuntu1~18.04)
  configuration: --prefix=/usr --extra-version=0ubuntu0.2 --toolchain=hardened --libdir=/usr/lib/x86_64-linux-gnu --incdir=/usr/include/x86_64-linux-gnu --enable-gpl --disable-stripping --enable-avresample --enable-avisynth --enable-gnutls --enable-ladspa --enable-libass --enable-libbluray --enable-libbs2b --enable-libcaca --enable-libcdio --enable-libflite --enable-libfontconfig --enable-libfreetype --enable-libfribidi --enable-libgme --enable-libgsm --enable-libmp3lame --enable-libmysofa --enable-libopenjpeg --enable-libopenmpt --enable-libopus --enable-libpulse --enable-librubberband --enable-librsvg --enable-libshine --enable-libsnappy --enable-libsoxr --enable-libspeex --enable-libssh --enable-libtheora --enable-libtwolame --enable-libvorbis --enable-libvpx --enable-libwavpack --enable-libwebp --enable-libx265 --enable-libxml2 --enable-libxvid --enable-libzmq --enable-libzvbi --enable-omx --enable-openal --enable-opengl --enable-sdl2 --enable-libdc1394 --enable-libdrm --enable-libiec61883 --enable-chromaprint --enable-frei0r --enable-libopencv --enable-libx264 --enable-shared
  libavutil      55. 78.100 / 55. 78.100
  libavcodec     57.107.100 / 57.107.100
  libavformat    57. 83.100 / 57. 83.100
  libavdevice    57. 10.100 / 57. 10.100
  libavfilter     6.107.100 /  6.107.100
  libavresample   3.  7.  0 /  3.  7.  0
  libswscale      4.  8.100 /  4.  8.100
  libswresample   2.  9.100 /  2.  9.100
  libpostproc    54.  7.100 / 54.  7.100
[rawvideo @ 0x55d97fe99a20] Estimating duration from bitrate, this may be inaccurate
Input #0, rawvideo, from '../../SVC-Encoder-20220109T061506Z-001/SVC-Encoder/Dataset/RollerCoaster/6f_2x2/tile_yuv/f4_t3_480x480.yuv':
  Duration: 00:00:10.00, start: 0.000000, bitrate: 82944 kb/s
    Stream #0:0: Video: rawvideo (I420 / 0x30323449), yuv420p, 480x480, 82944 kb/s, 30 tbr, 30 tbn, 30 tbc
Stream mapping:
  Stream #0:0 -> #0:0 (rawvideo (native) -> h264 (libx264))
Press [q] to stop, [?] for help
[libx264 @ 0x55d97fea6c60] using cpu capabilities: MMX2 SSE2Fast LZCNT SSSE3 SSE4.2 AVX
[libx264 @ 0x55d97fea6c60] profile High, level 3.0
Output #0, rawvideo, to 'RollerCoaster_f4_t3_480x480_x264_QP_32.h264':
  Metadata:
    encoder         : Lavf57.83.100
    Stream #0:0: Video: h264 (libx264), yuv420p, 480x480, q=-1--1, 30 fps, 30 tbn, 30 tbc
    Metadata:
      encoder         : Lavc57.107.100 libx264
    Side data:
      cpb: bitrate max/min/avg: 0/0/0 buffer size: 0 vbv_delay: -1
frame=  124 fps=0.0 q=38.0 PSNR=Y:nan U:nan V:nan *:nan size=      79kB time=00:00:02.70 bitrate= 240.7kbits/s speed= 5.4x    frame=  215 fps=213 q=38.0 PSNR=Y:nan U:nan V:nan *:nan size=     156kB time=00:00:05.73 bitrate= 222.5kbits/s speed=5.69x    frame=  300 fps=181 q=38.0 LPSNR=Y:inf U:inf V:inf *:inf size=     264kB time=00:00:09.93 bitrate= 217.4kbits/s speed=6.01x    
video:264kB audio:0kB subtitle:0kB other streams:0kB global headers:0kB muxing overhead: 0.000000%
[libx264 @ 0x55d97fea6c60] frame I:2     Avg QP:30.28  size: 15363  PSNR Mean Y:36.98 U:44.51 V:46.89 Avg:38.44 Global:38.37
[libx264 @ 0x55d97fea6c60] frame P:76    Avg QP:31.91  size:  2412  PSNR Mean Y:35.20 U:44.25 V:46.28 Avg:36.75 Global:36.71
[libx264 @ 0x55d97fea6c60] frame B:222   Avg QP:37.48  size:   252  PSNR Mean Y:34.98 U:44.25 V:46.27 Avg:36.54 Global:36.52
[libx264 @ 0x55d97fea6c60] consecutive B-frames:  1.0%  0.7%  1.0% 97.3%
[libx264 @ 0x55d97fea6c60] mb I  I16..4: 14.2% 71.2% 14.6%
[libx264 @ 0x55d97fea6c60] mb P  I16..4:  0.3%  0.3%  0.0%  P16..4: 40.9% 13.7%  4.5%  0.0%  0.0%    skip:40.3%
[libx264 @ 0x55d97fea6c60] mb B  I16..4:  0.0%  0.0%  0.0%  B16..8: 23.9%  0.4%  0.0%  direct: 0.0%  skip:75.7%  L0:26.6% L1:71.9% BI: 1.5%
[libx264 @ 0x55d97fea6c60] 8x8 transform intra:66.4% inter:68.6%
[libx264 @ 0x55d97fea6c60] coded y,uvDC,uvAC intra: 63.7% 50.3% 7.4% inter: 4.9% 1.9% 0.0%
[libx264 @ 0x55d97fea6c60] i16 v,h,dc,p:  3% 53% 24% 20%
[libx264 @ 0x55d97fea6c60] i8 v,h,dc,ddl,ddr,vr,hd,vl,hu:  6%  9% 24%  5%  8%  5% 10% 26%  7%
[libx264 @ 0x55d97fea6c60] i4 v,h,dc,ddl,ddr,vr,hd,vl,hu:  7% 12% 17%  8% 12%  6% 13% 20%  5%
[libx264 @ 0x55d97fea6c60] i8c dc,h,v,p: 64% 13% 14%  9%
[libx264 @ 0x55d97fea6c60] Weighted P-Frames: Y:1.3% UV:0.0%
[libx264 @ 0x55d97fea6c60] ref P L0: 65.3% 20.4% 12.0%  2.3%  0.0%
[libx264 @ 0x55d97fea6c60] ref B L0: 91.1%  7.7%  1.3%
[libx264 @ 0x55d97fea6c60] ref B L1: 92.9%  7.1%
[libx264 @ 0x55d97fea6c60] PSNR Mean Y:35.050 U:44.250 V:46.278 Avg:36.603 Global:36.580 kb/s:215.97
